<svg width="417pt" height="428pt"
 viewBox="0.00 0.00 417.00 428.00" xmlns="http://www.w3.org/2000/svg" xmlns:xlink="http://www.w3.org/1999/xlink">
<style>
.edge path { fill: none; stroke: #8a8a8a; }
.edge polygon { stroke: #8a8a8a; fill: #8a8a8a; }
.cluster path, .cluster polygon { fill: none; stroke: #c8c8c8; }
@media (prefers-color-scheme: dark) {
  .edge text { fill: #cdd1d5; }
  .edge path { stroke: #9aa0a6; }
  .edge polygon { stroke: #9aa0a6; fill: #9aa0a6; }
  .cluster text { fill: #9aa0a6; }
  .cluster path, .cluster polygon { stroke: #5a5a5a; }
}
</style>
<g id="graph0" class="graph" transform="scale(1 1) rotate(0) translate(4 424.49)">
<title>architecture&#45;event&#45;loop</title>
<!-- init -->
<g id="node1" class="node">
<title>init</title>
<path fill="#9c3d3d" stroke="black" stroke-width="0" d="M348.29,-420.49C348.29,-420.49 137,-420.49 137,-420.49 131,-420.49 125,-414.49 125,-408.49 125,-408.49 125,-386.41 125,-386.41 125,-380.41 131,-374.41 137,-374.41 137,-374.41 348.29,-374.41 348.29,-374.41 354.29,-374.41 360.29,-380.41 360.29,-386.41 360.29,-386.41 360.29,-408.49 360.29,-408.49 360.29,-414.49 354.29,-420.49 348.29,-420.49"/>
<text xml:space="preserve" text-anchor="middle" x="242.64" y="-405" font-family="Helvetica,sans-Serif" font-size="11.00" fill="white">Subsystems initialised</text>
<text xml:space="preserve" text-anchor="middle" x="242.64" y="-393" font-family="Helvetica,sans-Serif" font-size="11.00" fill="white">Terminal · AppState · Focus · TUIContext</text>
<text xml:space="preserve" text-anchor="middle" x="242.64" y="-381" font-family="Helvetica,sans-Serif" font-size="11.00" fill="white">RenderLoop · InputHandler · signal handlers</text>
</g>
<!-- shutdown -->
<g id="node2" class="node">
<title>shutdown</title>
<path fill="#1f9b76" stroke="black" stroke-width="0" d="M231.03,-334.38C231.03,-334.38 185.25,-322.44 185.25,-322.44 179.44,-320.92 179.44,-317.9 185.25,-316.38 185.25,-316.38 231.03,-304.44 231.03,-304.44 236.84,-302.92 248.45,-302.92 254.26,-304.44 254.26,-304.44 300.04,-316.38 300.04,-316.38 305.85,-317.9 305.85,-320.92 300.04,-322.44 300.04,-322.44 254.26,-334.38 254.26,-334.38 248.45,-335.9 236.84,-335.9 231.03,-334.38"/>
<text xml:space="preserve" text-anchor="middle" x="242.64" y="-314.96" font-family="Helvetica,sans-Serif" font-size="11.00" fill="white">shouldShutdown?</text>
</g>
<!-- init&#45;&gt;shutdown -->
<g id="edge1" class="edge">
<title>init&#45;&gt;shutdown</title>
<path vector-effect="non-scaling-stroke" fill="none" stroke="#8a8a8a" stroke-width="1.2" d="M242.64,-374.46C242.64,-365.51 242.64,-355.11 242.64,-345.84"/>
<polygon fill="#8a8a8a" stroke="#8a8a8a" stroke-width="1.2" points="245.1,-345.85 242.65,-338.85 240.2,-345.85 245.1,-345.85"/>
</g>
<!-- resize -->
<g id="node3" class="node">
<title>resize</title>
<path fill="#1f9b76" stroke="black" stroke-width="0" d="M237.16,-255.66C237.16,-255.66 70.12,-255.66 70.12,-255.66 64.12,-255.66 58.12,-249.66 58.12,-243.66 58.12,-243.66 58.12,-231.33 58.12,-231.33 58.12,-225.33 64.12,-219.33 70.12,-219.33 70.12,-219.33 237.16,-219.33 237.16,-219.33 243.16,-219.33 249.16,-225.33 249.16,-231.33 249.16,-231.33 249.16,-243.66 249.16,-243.66 249.16,-249.66 243.16,-255.66 237.16,-255.66"/>
<text xml:space="preserve" text-anchor="middle" x="153.64" y="-240.17" font-family="Helvetica,sans-Serif" font-size="11.00" fill="white">Consume resize flag</text>
<text xml:space="preserve" text-anchor="middle" x="153.64" y="-228.17" font-family="Helvetica,sans-Serif" font-size="11.00" fill="white">SIGWINCH → invalidate diff cache</text>
</g>
<!-- shutdown&#45;&gt;resize -->
<g id="edge2" class="edge">
<title>shutdown&#45;&gt;resize</title>
<path vector-effect="non-scaling-stroke" fill="none" stroke="#8a8a8a" stroke-width="1.2" d="M228.35,-305.57C214.98,-293.57 194.75,-275.4 178.7,-261"/>
<polygon fill="#8a8a8a" stroke="#8a8a8a" stroke-width="1.2" points="180.76,-259.55 173.92,-256.7 177.49,-263.2 180.76,-259.55"/>
<text xml:space="preserve" text-anchor="middle" x="208.72" y="-274.86" font-family="Helvetica,sans-Serif" font-size="9.00" fill="#555555">no</text>
</g>
<!-- cleanup -->
<g id="node7" class="node">
<title>cleanup</title>
<path fill="#9c3d3d" stroke="black" stroke-width="0" d="M378.66,-255.49C378.66,-255.49 286.62,-255.49 286.62,-255.49 280.62,-255.49 274.62,-249.49 274.62,-243.49 274.62,-243.49 274.62,-231.49 274.62,-231.49 274.62,-225.49 280.62,-219.49 286.62,-219.49 286.62,-219.49 378.66,-219.49 378.66,-219.49 384.66,-219.49 390.66,-225.49 390.66,-231.49 390.66,-231.49 390.66,-243.49 390.66,-243.49 390.66,-249.49 384.66,-255.49 378.66,-255.49"/>
<text xml:space="preserve" text-anchor="middle" x="332.64" y="-239.04" font-family="Helvetica,sans-Serif" font-size="11.00" fill="white">Cleanup &amp; exit</text>
<text xml:space="preserve" text-anchor="middle" x="332.64" y="-227.04" font-family="Helvetica,sans-Serif" font-size="11.00" fill="white">restore the terminal</text>
</g>
<!-- shutdown&#45;&gt;cleanup -->
<g id="edge3" class="edge">
<title>shutdown&#45;&gt;cleanup</title>
<path vector-effect="non-scaling-stroke" fill="none" stroke="#8a8a8a" stroke-width="1.2" d="M257.11,-305.57C270.62,-293.57 291.08,-275.4 307.3,-261"/>
<polygon fill="#8a8a8a" stroke="#8a8a8a" stroke-width="1.2" points="308.55,-263.17 312.16,-256.69 305.29,-259.5 308.55,-263.17"/>
<text xml:space="preserve" text-anchor="middle" x="300.16" y="-274.86" font-family="Helvetica,sans-Serif" font-size="9.00" fill="#555555">yes</text>
</g>
<!-- input -->
<g id="node4" class="node">
<title>input</title>
<path fill="#1f9b76" stroke="black" stroke-width="0" d="M295.29,-182.33C295.29,-182.33 12,-182.33 12,-182.33 6,-182.33 0,-176.33 0,-170.33 0,-170.33 0,-158 0,-158 0,-152 6,-146 12,-146 12,-146 295.29,-146 295.29,-146 301.29,-146 307.29,-152 307.29,-158 307.29,-158 307.29,-170.33 307.29,-170.33 307.29,-176.33 301.29,-182.33 295.29,-182.33"/>
<text xml:space="preserve" text-anchor="middle" x="153.64" y="-166.84" font-family="Helvetica,sans-Serif" font-size="11.00" fill="white">Drain &amp; dispatch input</text>
<text xml:space="preserve" text-anchor="middle" x="153.64" y="-154.84" font-family="Helvetica,sans-Serif" font-size="11.00" fill="white">≤128/frame · keys → 5 layers + 2 stages · mouse → hit&#45;test</text>
</g>
<!-- resize&#45;&gt;input -->
<g id="edge4" class="edge">
<title>resize&#45;&gt;input</title>
<path vector-effect="non-scaling-stroke" fill="none" stroke="#8a8a8a" stroke-width="1.2" d="M153.64,-219.59C153.64,-210.97 153.64,-200.31 153.64,-190.72"/>
<polygon fill="#8a8a8a" stroke="#8a8a8a" stroke-width="1.2" points="156.1,-190.76 153.65,-183.76 151.2,-190.76 156.1,-190.76"/>
</g>
<!-- render -->
<g id="node5" class="node">
<title>render</title>
<path fill="#1f9b76" stroke="black" stroke-width="0" d="M253.66,-109C253.66,-109 53.62,-109 53.62,-109 47.63,-109 41.62,-103 41.62,-97 41.62,-97 41.62,-85 41.62,-85 41.62,-79 47.62,-73 53.62,-73 53.62,-73 253.66,-73 253.66,-73 259.66,-73 265.66,-79 265.66,-85 265.66,-85 265.66,-97 265.66,-97 265.66,-103 259.66,-109 253.66,-109"/>
<text xml:space="preserve" text-anchor="middle" x="153.64" y="-92.55" font-family="Helvetica,sans-Serif" font-size="11.00" fill="white">Render if a frame is due</text>
<text xml:space="preserve" text-anchor="middle" x="153.64" y="-80.55" font-family="Helvetica,sans-Serif" font-size="11.00" fill="white">coalesce requests · ≤ App.maxFrameRate</text>
</g>
<!-- input&#45;&gt;render -->
<g id="edge5" class="edge">
<title>input&#45;&gt;render</title>
<path vector-effect="non-scaling-stroke" fill="none" stroke="#8a8a8a" stroke-width="1.2" d="M153.64,-146.3C153.64,-137.7 153.64,-127.07 153.64,-117.5"/>
<polygon fill="#8a8a8a" stroke="#8a8a8a" stroke-width="1.2" points="156.1,-117.56 153.65,-110.56 151.2,-117.56 156.1,-117.56"/>
</g>
<!-- block -->
<g id="node6" class="node">
<title>block</title>
<path fill="#13795b" stroke="black" stroke-width="0" d="M248.41,-36C248.41,-36 58.88,-36 58.88,-36 52.88,-36 46.88,-30 46.88,-24 46.88,-24 46.88,-12 46.88,-12 46.88,-6 52.88,0 58.88,0 58.88,0 248.41,0 248.41,0 254.41,0 260.41,-6 260.41,-12 260.41,-12 260.41,-24 260.41,-24 260.41,-30 254.41,-36 248.41,-36"/>
<text xml:space="preserve" text-anchor="middle" x="153.64" y="-19.55" font-family="Helvetica,sans-Serif" font-size="11.00" fill="white">Block until woken</text>
<text xml:space="preserve" text-anchor="middle" x="153.64" y="-7.55" font-family="Helvetica,sans-Serif" font-size="11.00" fill="white">input · render request · signal (self&#45;pipe)</text>
</g>
<!-- render&#45;&gt;block -->
<g id="edge6" class="edge">
<title>render&#45;&gt;block</title>
<path vector-effect="non-scaling-stroke" fill="none" stroke="#8a8a8a" stroke-width="1.2" d="M153.64,-73.17C153.64,-64.6 153.64,-53.99 153.64,-44.44"/>
<polygon fill="#8a8a8a" stroke="#8a8a8a" stroke-width="1.2" points="156.1,-44.52 153.65,-37.52 151.2,-44.52 156.1,-44.52"/>
</g>
<!-- block&#45;&gt;shutdown -->
<g id="edge7" class="edge">
<title>block&#45;&gt;shutdown</title>
<path vector-effect="non-scaling-stroke" fill="none" stroke="#8a8a8a" stroke-width="1.2" d="M207.27,-35.99C230.52,-44.87 257.25,-57.21 278.64,-73 347.46,-123.79 374.04,-139.08 403.64,-219.33 409.23,-234.48 412.76,-242.33 403.64,-255.66 380.37,-289.71 335.66,-305.28 299.25,-312.41"/>
<polygon fill="#8a8a8a" stroke="#8a8a8a" stroke-width="1.2" points="298.91,-309.98 292.46,-313.64 299.78,-314.8 298.91,-309.98"/>
<text xml:space="preserve" text-anchor="middle" x="396.48" y="-160.49" font-family="Helvetica,sans-Serif" font-size="9.00" fill="#555555">loop</text>
</g>
</g>
</svg>
