<svg width="391pt" height="408pt"
 viewBox="0.00 0.00 391.00 408.00" xmlns="http://www.w3.org/2000/svg" xmlns:xlink="http://www.w3.org/1999/xlink">
<style>
@media (prefers-color-scheme: dark) {
  .edge text { fill: #cdd1d5; }
  .edge path { stroke: #9aa0a6; }
  .edge polygon { stroke: #9aa0a6; fill: #9aa0a6; }
}
</style>
<g id="graph0" class="graph" transform="scale(1 1) rotate(0) translate(4 404.49)">
<title>architecture&#45;event&#45;loop</title>
<!-- init -->
<g id="node1" class="node">
<title>init</title>
<path fill="#9c3d3d" stroke="black" stroke-width="0" d="M321.66,-400.49C321.66,-400.49 110.38,-400.49 110.38,-400.49 104.38,-400.49 98.37,-394.49 98.37,-388.49 98.37,-388.49 98.37,-366.41 98.37,-366.41 98.37,-360.41 104.37,-354.41 110.37,-354.41 110.37,-354.41 321.66,-354.41 321.66,-354.41 327.66,-354.41 333.66,-360.41 333.66,-366.41 333.66,-366.41 333.66,-388.49 333.66,-388.49 333.66,-394.49 327.66,-400.49 321.66,-400.49"/>
<text xml:space="preserve" text-anchor="middle" x="216.02" y="-385" font-family="Helvetica,sans-Serif" font-size="11.00" fill="white">Subsystems initialised</text>
<text xml:space="preserve" text-anchor="middle" x="216.02" y="-373" font-family="Helvetica,sans-Serif" font-size="11.00" fill="white">Terminal · AppState · Focus · TUIContext</text>
<text xml:space="preserve" text-anchor="middle" x="216.02" y="-361" font-family="Helvetica,sans-Serif" font-size="11.00" fill="white">RenderLoop · InputHandler · signal handlers</text>
</g>
<!-- shutdown -->
<g id="node2" class="node">
<title>shutdown</title>
<path fill="#1f9b76" stroke="black" stroke-width="0" d="M204.41,-318.38C204.41,-318.38 158.62,-306.44 158.62,-306.44 152.82,-304.92 152.82,-301.9 158.62,-300.38 158.62,-300.38 204.41,-288.44 204.41,-288.44 210.21,-286.92 221.83,-286.92 227.63,-288.44 227.63,-288.44 273.42,-300.38 273.42,-300.38 279.22,-301.9 279.22,-304.92 273.42,-306.44 273.42,-306.44 227.63,-318.38 227.63,-318.38 221.83,-319.9 210.21,-319.9 204.41,-318.38"/>
<text xml:space="preserve" text-anchor="middle" x="216.02" y="-298.96" font-family="Helvetica,sans-Serif" font-size="11.00" fill="white">shouldShutdown?</text>
</g>
<!-- init&#45;&gt;shutdown -->
<g id="edge1" class="edge">
<title>init&#45;&gt;shutdown</title>
<path fill="none" stroke="#8a8a8a" d="M216.02,-354.44C216.02,-346.54 216.02,-337.58 216.02,-329.44"/>
<polygon fill="#8a8a8a" stroke="#8a8a8a" points="218.47,-329.54 216.02,-322.54 213.57,-329.54 218.47,-329.54"/>
</g>
<!-- resize -->
<g id="node3" class="node">
<title>resize</title>
<path fill="#1f9b76" stroke="black" stroke-width="0" d="M210.54,-243.66C210.54,-243.66 43.5,-243.66 43.5,-243.66 37.5,-243.66 31.5,-237.66 31.5,-231.66 31.5,-231.66 31.5,-219.33 31.5,-219.33 31.5,-213.33 37.5,-207.33 43.5,-207.33 43.5,-207.33 210.54,-207.33 210.54,-207.33 216.54,-207.33 222.54,-213.33 222.54,-219.33 222.54,-219.33 222.54,-231.66 222.54,-231.66 222.54,-237.66 216.54,-243.66 210.54,-243.66"/>
<text xml:space="preserve" text-anchor="middle" x="127.02" y="-228.17" font-family="Helvetica,sans-Serif" font-size="11.00" fill="white">Consume resize flag</text>
<text xml:space="preserve" text-anchor="middle" x="127.02" y="-216.17" font-family="Helvetica,sans-Serif" font-size="11.00" fill="white">SIGWINCH → invalidate diff cache</text>
</g>
<!-- shutdown&#45;&gt;resize -->
<g id="edge2" class="edge">
<title>shutdown&#45;&gt;resize</title>
<path fill="none" stroke="#8a8a8a" d="M200.92,-289.53C187.9,-278.43 168.81,-262.14 153.29,-248.9"/>
<polygon fill="#8a8a8a" stroke="#8a8a8a" points="154.95,-247.1 148.04,-244.42 151.77,-250.83 154.95,-247.1"/>
<text xml:space="preserve" text-anchor="middle" x="182.1" y="-260.86" font-family="Helvetica,sans-Serif" font-size="9.00" fill="#555555">no</text>
</g>
<!-- cleanup -->
<g id="node7" class="node">
<title>cleanup</title>
<path fill="#9c3d3d" stroke="black" stroke-width="0" d="M352.04,-243.49C352.04,-243.49 260,-243.49 260,-243.49 254,-243.49 248,-237.49 248,-231.49 248,-231.49 248,-219.49 248,-219.49 248,-213.49 254,-207.49 260,-207.49 260,-207.49 352.04,-207.49 352.04,-207.49 358.04,-207.49 364.04,-213.49 364.04,-219.49 364.04,-219.49 364.04,-231.49 364.04,-231.49 364.04,-237.49 358.04,-243.49 352.04,-243.49"/>
<text xml:space="preserve" text-anchor="middle" x="306.02" y="-227.04" font-family="Helvetica,sans-Serif" font-size="11.00" fill="white">Cleanup &amp; exit</text>
<text xml:space="preserve" text-anchor="middle" x="306.02" y="-215.04" font-family="Helvetica,sans-Serif" font-size="11.00" fill="white">restore the terminal</text>
</g>
<!-- shutdown&#45;&gt;cleanup -->
<g id="edge3" class="edge">
<title>shutdown&#45;&gt;cleanup</title>
<path fill="none" stroke="#8a8a8a" d="M231.29,-289.53C244.45,-278.43 263.76,-262.14 279.45,-248.9"/>
<polygon fill="#8a8a8a" stroke="#8a8a8a" points="281,-250.8 284.77,-244.42 277.84,-247.06 281,-250.8"/>
<text xml:space="preserve" text-anchor="middle" x="273.53" y="-260.86" font-family="Helvetica,sans-Serif" font-size="9.00" fill="#555555">yes</text>
</g>
<!-- input -->
<g id="node4" class="node">
<title>input</title>
<path fill="#1f9b76" stroke="black" stroke-width="0" d="M242.04,-174.33C242.04,-174.33 12,-174.33 12,-174.33 6,-174.33 0,-168.33 0,-162.33 0,-162.33 0,-150 0,-150 0,-144 6,-138 12,-138 12,-138 242.04,-138 242.04,-138 248.04,-138 254.04,-144 254.04,-150 254.04,-150 254.04,-162.33 254.04,-162.33 254.04,-168.33 248.04,-174.33 242.04,-174.33"/>
<text xml:space="preserve" text-anchor="middle" x="127.02" y="-158.84" font-family="Helvetica,sans-Serif" font-size="11.00" fill="white">Drain &amp; dispatch input</text>
<text xml:space="preserve" text-anchor="middle" x="127.02" y="-146.84" font-family="Helvetica,sans-Serif" font-size="11.00" fill="white">≤128/frame · keys → 5 layers · mouse → hit&#45;test</text>
</g>
<!-- resize&#45;&gt;input -->
<g id="edge4" class="edge">
<title>resize&#45;&gt;input</title>
<path fill="none" stroke="#8a8a8a" d="M127.02,-207.5C127.02,-199.87 127.02,-190.71 127.02,-182.3"/>
<polygon fill="#8a8a8a" stroke="#8a8a8a" points="129.47,-182.43 127.02,-175.43 124.57,-182.43 129.47,-182.43"/>
</g>
<!-- render -->
<g id="node5" class="node">
<title>render</title>
<path fill="#1f9b76" stroke="black" stroke-width="0" d="M227.04,-105C227.04,-105 27,-105 27,-105 21,-105 15,-99 15,-93 15,-93 15,-81 15,-81 15,-75 21,-69 27,-69 27,-69 227.04,-69 227.04,-69 233.04,-69 239.04,-75 239.04,-81 239.04,-81 239.04,-93 239.04,-93 239.04,-99 233.04,-105 227.04,-105"/>
<text xml:space="preserve" text-anchor="middle" x="127.02" y="-88.55" font-family="Helvetica,sans-Serif" font-size="11.00" fill="white">Render if a frame is due</text>
<text xml:space="preserve" text-anchor="middle" x="127.02" y="-76.55" font-family="Helvetica,sans-Serif" font-size="11.00" fill="white">coalesce requests · ≤ App.maxFrameRate</text>
</g>
<!-- input&#45;&gt;render -->
<g id="edge5" class="edge">
<title>input&#45;&gt;render</title>
<path fill="none" stroke="#8a8a8a" d="M127.02,-138.22C127.02,-130.6 127.02,-121.46 127.02,-113.08"/>
<polygon fill="#8a8a8a" stroke="#8a8a8a" points="129.47,-113.22 127.02,-106.22 124.57,-113.22 129.47,-113.22"/>
</g>
<!-- block -->
<g id="node6" class="node">
<title>block</title>
<path fill="#13795b" stroke="black" stroke-width="0" d="M221.79,-36C221.79,-36 32.25,-36 32.25,-36 26.25,-36 20.25,-30 20.25,-24 20.25,-24 20.25,-12 20.25,-12 20.25,-6 26.25,0 32.25,0 32.25,0 221.79,0 221.79,0 227.79,0 233.79,-6 233.79,-12 233.79,-12 233.79,-24 233.79,-24 233.79,-30 227.79,-36 221.79,-36"/>
<text xml:space="preserve" text-anchor="middle" x="127.02" y="-19.55" font-family="Helvetica,sans-Serif" font-size="11.00" fill="white">Block until woken</text>
<text xml:space="preserve" text-anchor="middle" x="127.02" y="-7.55" font-family="Helvetica,sans-Serif" font-size="11.00" fill="white">input · render request · signal (self&#45;pipe)</text>
</g>
<!-- render&#45;&gt;block -->
<g id="edge6" class="edge">
<title>render&#45;&gt;block</title>
<path fill="none" stroke="#8a8a8a" d="M127.02,-69.09C127.02,-61.5 127.02,-52.38 127.02,-44.02"/>
<polygon fill="#8a8a8a" stroke="#8a8a8a" points="129.47,-44.18 127.02,-37.18 124.57,-44.18 129.47,-44.18"/>
</g>
<!-- block&#45;&gt;shutdown -->
<g id="edge7" class="edge">
<title>block&#45;&gt;shutdown</title>
<path fill="none" stroke="#8a8a8a" d="M184.85,-35.91C207,-43.94 231.78,-54.91 252.02,-69 320.02,-116.35 347.26,-130 377.02,-207.33 382.82,-222.4 386.28,-230.43 377.02,-243.66 354.11,-276.41 310.91,-290.97 275.02,-297.41"/>
<polygon fill="#8a8a8a" stroke="#8a8a8a" points="275.01,-294.92 268.51,-298.49 275.81,-299.76 275.01,-294.92"/>
<text xml:space="preserve" text-anchor="middle" x="371.33" y="-152.49" font-family="Helvetica,sans-Serif" font-size="9.00" fill="#555555">loop</text>
</g>
</g>
</svg>
