<svg xmlns="http://www.w3.org/2000/svg" viewBox="0 0 498 535" width="498" height="535" font-family="-apple-system, BlinkMacSystemFont, 'Segoe UI', Roboto, Helvetica, Arial, sans-serif" role="img" aria-label="TUIkit demand-driven, frame-capped event loop">
<defs><marker id="arrow" viewBox="0 0 10 10" refX="9" refY="5" markerWidth="7" markerHeight="7" orient="auto-start-reverse"><path d="M0,0 L10,5 L0,10 z" fill="#8a8a8a"/></marker></defs>
<path d="M 205.9,81.0 L 205.9,111.0" fill="none" stroke="#8a8a8a" stroke-width="1.6" marker-end="url(#arrow)"/>
<path d="M 205.9,252.0 L 205.9,282.0" fill="none" stroke="#8a8a8a" stroke-width="1.6" marker-end="url(#arrow)"/>
<path d="M 205.9,345.0 L 205.9,375.0" fill="none" stroke="#8a8a8a" stroke-width="1.6" marker-end="url(#arrow)"/>
<path d="M 205.9,424.0 L 205.9,454.0" fill="none" stroke="#8a8a8a" stroke-width="1.6" marker-end="url(#arrow)"/>
<path d="M 205.9,173.0 L 205.9,203.0" fill="none" stroke="#8a8a8a" stroke-width="1.6" marker-end="url(#arrow)"/><rect x="196.2" y="180.0" width="19.4" height="15" rx="4" fill="#ffffff" opacity="0.92"/><text x="205.9" y="191.5" text-anchor="middle" font-size="10" fill="#4a4a4a">no</text>
<path d="M 285.7,142.0 L 325.7,142.0" fill="none" stroke="#8a8a8a" stroke-width="1.6" marker-end="url(#arrow)"/><rect x="292.9" y="127.0" width="25.6" height="15" rx="4" fill="#ffffff" opacity="0.92"/><text x="305.7" y="138.5" text-anchor="middle" font-size="10" fill="#4a4a4a">yes</text>
<path d="M 64.0,485.5 L 26.0,485.5 L 26.0,142.0 L 126.1,142.0" fill="none" stroke="#8a8a8a" stroke-width="1.6" marker-end="url(#arrow)"/>
<rect x="64.0" y="18.0" width="283.7" height="63.0" rx="9" ry="9" fill="#9c3d3d"/><text x="205.9" y="39.2" text-anchor="middle" font-size="13.0" font-weight="600" fill="#ffffff">Subsystems initialised</text><text x="205.9" y="55.2" text-anchor="middle" font-size="10.5" fill="#dff1ea">Terminal · AppState · Focus · TUIContext</text><text x="205.9" y="69.2" text-anchor="middle" font-size="10.5" fill="#dff1ea">RenderLoop · InputHandler · signal handlers</text>
<polygon points="205.9,111.0 285.7,142.0 205.9,173.0 126.1,142.0" fill="#1f9b76"/><text x="205.9" y="145.7" text-anchor="middle" font-size="13.0" font-weight="600" fill="#ffffff">shouldShutdown?</text>
<rect x="64.0" y="203.0" width="283.7" height="49.0" rx="9" ry="9" fill="#1f9b76"/><text x="205.9" y="224.2" text-anchor="middle" font-size="13.0" font-weight="600" fill="#ffffff">Consume resize flag</text><text x="205.9" y="240.2" text-anchor="middle" font-size="10.5" fill="#dff1ea">SIGWINCH → invalidate diff cache</text>
<rect x="64.0" y="282.0" width="283.7" height="63.0" rx="9" ry="9" fill="#1f9b76"/><text x="205.9" y="303.2" text-anchor="middle" font-size="13.0" font-weight="600" fill="#ffffff">Drain &amp; dispatch input</text><text x="205.9" y="319.2" text-anchor="middle" font-size="10.5" fill="#dff1ea">≤ 128 events / frame</text><text x="205.9" y="333.2" text-anchor="middle" font-size="10.5" fill="#dff1ea">keys → 5 layers · mouse → hit-test</text>
<rect x="64.0" y="375.0" width="283.7" height="49.0" rx="9" ry="9" fill="#1f9b76"/><text x="205.9" y="396.2" text-anchor="middle" font-size="13.0" font-weight="600" fill="#ffffff">Render if a frame is due</text><text x="205.9" y="412.2" text-anchor="middle" font-size="10.5" fill="#dff1ea">coalesce requests · ≤ App.maxFrameRate</text>
<rect x="64.0" y="454.0" width="283.7" height="63.0" rx="9" ry="9" fill="#13795b"/><text x="205.9" y="475.2" text-anchor="middle" font-size="13.0" font-weight="600" fill="#ffffff">Block until woken</text><text x="205.9" y="491.2" text-anchor="middle" font-size="10.5" fill="#dff1ea">input · render request · signal</text><text x="205.9" y="505.2" text-anchor="middle" font-size="10.5" fill="#dff1ea">self-pipe delivers SIGWINCH</text>
<rect x="325.7" y="117.5" width="148.0" height="49.0" rx="9" ry="9" fill="#9c3d3d"/><text x="399.7" y="138.7" text-anchor="middle" font-size="13.0" font-weight="600" fill="#ffffff">Cleanup &amp; exit</text><text x="399.7" y="154.7" text-anchor="middle" font-size="10.5" fill="#dff1ea">restore the terminal</text>
</svg>
