<svg width="496pt" height="715pt"
 viewBox="0.00 0.00 496.00 715.00" xmlns="http://www.w3.org/2000/svg" xmlns:xlink="http://www.w3.org/1999/xlink">
<style>
@media (prefers-color-scheme: dark) {
  .edge text { fill: #cdd1d5; }
  .edge path { stroke: #9aa0a6; }
  .edge polygon { stroke: #9aa0a6; fill: #9aa0a6; }
  .cluster text { fill: #9aa0a6; }
  .cluster polygon, .cluster path { stroke: #5a5a5a; }
}
</style>
<g id="graph0" class="graph" transform="scale(1 1) rotate(0) translate(4 711)">
<title>dep&#45;graph&#45;ownership</title>
<g id="clust1" class="cluster">
<title>cluster_0</title>
<path fill="none" stroke="#c8c8c8" d="M350.58,-112C350.58,-112 467.87,-112 467.87,-112 473.87,-112 479.87,-118 479.87,-124 479.87,-124 479.87,-400 479.87,-400 479.87,-406 473.87,-412 467.87,-412 467.87,-412 350.58,-412 350.58,-412 344.58,-412 338.58,-406 338.58,-400 338.58,-400 338.58,-124 338.58,-124 338.58,-118 344.58,-112 350.58,-112"/>
</g>
<!-- lifecycle -->
<g id="node1" class="node">
<title>lifecycle</title>
<path fill="#1f9b76" stroke="black" stroke-width="0" d="M450.74,-402C450.74,-402 367.7,-402 367.7,-402 361.7,-402 355.7,-396 355.7,-390 355.7,-390 355.7,-378 355.7,-378 355.7,-372 361.7,-366 367.7,-366 367.7,-366 450.74,-366 450.74,-366 456.74,-366 462.74,-372 462.74,-378 462.74,-378 462.74,-390 462.74,-390 462.74,-396 456.74,-402 450.74,-402"/>
<text xml:space="preserve" text-anchor="middle" x="409.22" y="-379.55" font-family="Helvetica,sans-Serif" font-size="11.00" fill="white">LifecycleManager</text>
</g>
<!-- keyDispatch -->
<g id="node2" class="node">
<title>keyDispatch</title>
<path fill="#1f9b76" stroke="black" stroke-width="0" d="M457.87,-341C457.87,-341 360.58,-341 360.58,-341 354.58,-341 348.58,-335 348.58,-329 348.58,-329 348.58,-317 348.58,-317 348.58,-311 354.58,-305 360.58,-305 360.58,-305 457.87,-305 457.87,-305 463.87,-305 469.87,-311 469.87,-317 469.87,-317 469.87,-329 469.87,-329 469.87,-335 463.87,-341 457.87,-341"/>
<text xml:space="preserve" text-anchor="middle" x="409.22" y="-318.55" font-family="Helvetica,sans-Serif" font-size="11.00" fill="white">KeyEventDispatcher</text>
</g>
<!-- prefs -->
<g id="node3" class="node">
<title>prefs</title>
<path fill="#1f9b76" stroke="black" stroke-width="0" d="M454.49,-280C454.49,-280 363.95,-280 363.95,-280 357.95,-280 351.95,-274 351.95,-268 351.95,-268 351.95,-256 351.95,-256 351.95,-250 357.95,-244 363.95,-244 363.95,-244 454.49,-244 454.49,-244 460.49,-244 466.49,-250 466.49,-256 466.49,-256 466.49,-268 466.49,-268 466.49,-274 460.49,-280 454.49,-280"/>
<text xml:space="preserve" text-anchor="middle" x="409.22" y="-257.55" font-family="Helvetica,sans-Serif" font-size="11.00" fill="white">PreferenceStorage</text>
</g>
<!-- stateStore -->
<g id="node4" class="node">
<title>stateStore</title>
<path fill="#1f9b76" stroke="black" stroke-width="0" d="M440.62,-219C440.62,-219 377.83,-219 377.83,-219 371.83,-219 365.83,-213 365.83,-207 365.83,-207 365.83,-195 365.83,-195 365.83,-189 371.83,-183 377.83,-183 377.83,-183 440.62,-183 440.62,-183 446.62,-183 452.62,-189 452.62,-195 452.62,-195 452.62,-207 452.62,-207 452.62,-213 446.62,-219 440.62,-219"/>
<text xml:space="preserve" text-anchor="middle" x="409.22" y="-196.55" font-family="Helvetica,sans-Serif" font-size="11.00" fill="white">StateStorage</text>
</g>
<!-- cache -->
<g id="node5" class="node">
<title>cache</title>
<path fill="#1f9b76" stroke="black" stroke-width="0" d="M442.49,-158C442.49,-158 375.95,-158 375.95,-158 369.95,-158 363.95,-152 363.95,-146 363.95,-146 363.95,-134 363.95,-134 363.95,-128 369.95,-122 375.95,-122 375.95,-122 442.49,-122 442.49,-122 448.49,-122 454.49,-128 454.49,-134 454.49,-134 454.49,-146 454.49,-146 454.49,-152 448.49,-158 442.49,-158"/>
<text xml:space="preserve" text-anchor="middle" x="409.22" y="-135.55" font-family="Helvetica,sans-Serif" font-size="11.00" fill="white">RenderCache</text>
</g>
<!-- runner -->
<g id="node6" class="node">
<title>runner</title>
<path fill="#13795b" stroke="black" stroke-width="0" d="M66.54,-371C66.54,-371 12,-371 12,-371 6,-371 0,-365 0,-359 0,-359 0,-347 0,-347 0,-341 6,-335 12,-335 12,-335 66.54,-335 66.54,-335 72.54,-335 78.54,-341 78.54,-347 78.54,-347 78.54,-359 78.54,-359 78.54,-365 72.54,-371 66.54,-371"/>
<text xml:space="preserve" text-anchor="middle" x="39.27" y="-348.55" font-family="Helvetica,sans-Serif" font-size="11.00" fill="white">AppRunner</text>
</g>
<!-- signal -->
<g id="node7" class="node">
<title>signal</title>
<path fill="#1f9b76" stroke="black" stroke-width="0" d="M289.83,-707C289.83,-707 218.04,-707 218.04,-707 212.04,-707 206.04,-701 206.04,-695 206.04,-695 206.04,-683 206.04,-683 206.04,-677 212.04,-671 218.04,-671 218.04,-671 289.83,-671 289.83,-671 295.83,-671 301.83,-677 301.83,-683 301.83,-683 301.83,-695 301.83,-695 301.83,-701 295.83,-707 289.83,-707"/>
<text xml:space="preserve" text-anchor="middle" x="253.93" y="-684.55" font-family="Helvetica,sans-Serif" font-size="11.00" fill="white">SignalManager</text>
</g>
<!-- runner&#45;&gt;signal -->
<g id="edge1" class="edge">
<title>runner&#45;&gt;signal</title>
<path fill="none" stroke="#8a8a8a" d="M41.3,-370.85C44.28,-410.06 55.54,-505.51 96.54,-572 122.96,-614.85 171.32,-647.34 207.3,-667.08"/>
<polygon fill="#8a8a8a" stroke="#8a8a8a" points="206.12,-669.23 213.44,-670.39 208.44,-664.91 206.12,-669.23"/>
</g>
<!-- terminal -->
<g id="node8" class="node">
<title>terminal</title>
<path fill="#1f9b76" stroke="black" stroke-width="0" d="M273.7,-646C273.7,-646 234.16,-646 234.16,-646 228.16,-646 222.16,-640 222.16,-634 222.16,-634 222.16,-622 222.16,-622 222.16,-616 228.16,-610 234.16,-610 234.16,-610 273.7,-610 273.7,-610 279.7,-610 285.7,-616 285.7,-622 285.7,-622 285.7,-634 285.7,-634 285.7,-640 279.7,-646 273.7,-646"/>
<text xml:space="preserve" text-anchor="middle" x="253.93" y="-623.55" font-family="Helvetica,sans-Serif" font-size="11.00" fill="white">Terminal</text>
</g>
<!-- runner&#45;&gt;terminal -->
<g id="edge2" class="edge">
<title>runner&#45;&gt;terminal</title>
<path fill="none" stroke="#8a8a8a" d="M43.08,-370.98C48.74,-402.84 63.88,-470.23 96.54,-517 126.62,-560.07 179.03,-592.21 214.82,-610.54"/>
<polygon fill="#8a8a8a" stroke="#8a8a8a" points="213.48,-612.61 220.83,-613.56 215.68,-608.23 213.48,-612.61"/>
</g>
<!-- appState -->
<g id="node9" class="node">
<title>appState</title>
<path fill="#1f9b76" stroke="black" stroke-width="0" d="M275.95,-585C275.95,-585 231.91,-585 231.91,-585 225.91,-585 219.91,-579 219.91,-573 219.91,-573 219.91,-561 219.91,-561 219.91,-555 225.91,-549 231.91,-549 231.91,-549 275.95,-549 275.95,-549 281.95,-549 287.95,-555 287.95,-561 287.95,-561 287.95,-573 287.95,-573 287.95,-579 281.95,-585 275.95,-585"/>
<text xml:space="preserve" text-anchor="middle" x="253.93" y="-562.55" font-family="Helvetica,sans-Serif" font-size="11.00" fill="white">AppState</text>
</g>
<!-- runner&#45;&gt;appState -->
<g id="edge3" class="edge">
<title>runner&#45;&gt;appState</title>
<path fill="none" stroke="#8a8a8a" d="M45.91,-370.8C54.14,-394.68 71.26,-437.51 96.54,-467 128.52,-504.31 177.88,-532.65 212.58,-549.47"/>
<polygon fill="#8a8a8a" stroke="#8a8a8a" points="211.44,-551.64 218.82,-552.43 213.55,-547.22 211.44,-551.64"/>
</g>
<!-- statusBar -->
<g id="node10" class="node">
<title>statusBar</title>
<path fill="#1f9b76" stroke="black" stroke-width="0" d="M290.2,-524C290.2,-524 217.66,-524 217.66,-524 211.66,-524 205.66,-518 205.66,-512 205.66,-512 205.66,-500 205.66,-500 205.66,-494 211.66,-488 217.66,-488 217.66,-488 290.2,-488 290.2,-488 296.2,-488 302.2,-494 302.2,-500 302.2,-500 302.2,-512 302.2,-512 302.2,-518 296.2,-524 290.2,-524"/>
<text xml:space="preserve" text-anchor="middle" x="253.93" y="-501.55" font-family="Helvetica,sans-Serif" font-size="11.00" fill="white">StatusBarState</text>
</g>
<!-- runner&#45;&gt;statusBar -->
<g id="edge4" class="edge">
<title>runner&#45;&gt;statusBar</title>
<path fill="none" stroke="#8a8a8a" d="M51.83,-370.79C62.21,-385.79 78.56,-407.12 96.54,-422 128.19,-448.2 169.29,-469.89 201.41,-484.67"/>
<polygon fill="#8a8a8a" stroke="#8a8a8a" points="200.19,-486.8 207.58,-487.46 202.21,-482.34 200.19,-486.8"/>
</g>
<!-- appHeader -->
<g id="node11" class="node">
<title>appHeader</title>
<path fill="#1f9b76" stroke="black" stroke-width="0" d="M293.95,-463C293.95,-463 213.91,-463 213.91,-463 207.91,-463 201.91,-457 201.91,-451 201.91,-451 201.91,-439 201.91,-439 201.91,-433 207.91,-427 213.91,-427 213.91,-427 293.95,-427 293.95,-427 299.95,-427 305.95,-433 305.95,-439 305.95,-439 305.95,-451 305.95,-451 305.95,-457 299.95,-463 293.95,-463"/>
<text xml:space="preserve" text-anchor="middle" x="253.93" y="-440.55" font-family="Helvetica,sans-Serif" font-size="11.00" fill="white">AppHeaderState</text>
</g>
<!-- runner&#45;&gt;appHeader -->
<g id="edge5" class="edge">
<title>runner&#45;&gt;appHeader</title>
<path fill="none" stroke="#8a8a8a" d="M68.67,-370.92C77.44,-376.1 87.24,-381.56 96.54,-386 128.03,-401.04 164.45,-414.97 194.21,-425.51"/>
<polygon fill="#8a8a8a" stroke="#8a8a8a" points="193.18,-427.75 200.59,-427.75 194.8,-423.12 193.18,-427.75"/>
</g>
<!-- focus -->
<g id="node12" class="node">
<title>focus</title>
<path fill="#1f9b76" stroke="black" stroke-width="0" d="M289.45,-402C289.45,-402 218.41,-402 218.41,-402 212.41,-402 206.41,-396 206.41,-390 206.41,-390 206.41,-378 206.41,-378 206.41,-372 212.41,-366 218.41,-366 218.41,-366 289.45,-366 289.45,-366 295.45,-366 301.45,-372 301.45,-378 301.45,-378 301.45,-390 301.45,-390 301.45,-396 295.45,-402 289.45,-402"/>
<text xml:space="preserve" text-anchor="middle" x="253.93" y="-379.55" font-family="Helvetica,sans-Serif" font-size="11.00" fill="white">FocusManager</text>
</g>
<!-- runner&#45;&gt;focus -->
<g id="edge6" class="edge">
<title>runner&#45;&gt;focus</title>
<path fill="none" stroke="#8a8a8a" d="M78.29,-358.54C111.72,-363.42 160.78,-370.57 198.4,-376.05"/>
<polygon fill="#8a8a8a" stroke="#8a8a8a" points="197.94,-378.46 205.22,-377.05 198.65,-373.61 197.94,-378.46"/>
</g>
<!-- themes -->
<g id="node13" class="node">
<title>themes</title>
<path fill="#1f9b76" stroke="black" stroke-width="0" d="M299.58,-341C299.58,-341 208.29,-341 208.29,-341 202.29,-341 196.29,-335 196.29,-329 196.29,-329 196.29,-317 196.29,-317 196.29,-311 202.29,-305 208.29,-305 208.29,-305 299.58,-305 299.58,-305 305.58,-305 311.58,-311 311.58,-317 311.58,-317 311.58,-329 311.58,-329 311.58,-335 305.58,-341 299.58,-341"/>
<text xml:space="preserve" text-anchor="middle" x="253.93" y="-318.55" font-family="Helvetica,sans-Serif" font-size="11.00" fill="white">ThemeManager ×2</text>
</g>
<!-- runner&#45;&gt;themes -->
<g id="edge7" class="edge">
<title>runner&#45;&gt;themes</title>
<path fill="none" stroke="#8a8a8a" d="M78.29,-347.64C108.84,-343.33 152.42,-337.18 188.41,-332.1"/>
<polygon fill="#8a8a8a" stroke="#8a8a8a" points="188.35,-334.59 194.94,-331.18 187.66,-329.73 188.35,-334.59"/>
</g>
<!-- tuiContext -->
<g id="node14" class="node">
<title>tuiContext</title>
<path fill="#1f9b76" stroke="black" stroke-width="0" d="M281.2,-280C281.2,-280 226.66,-280 226.66,-280 220.66,-280 214.66,-274 214.66,-268 214.66,-268 214.66,-256 214.66,-256 214.66,-250 220.66,-244 226.66,-244 226.66,-244 281.2,-244 281.2,-244 287.2,-244 293.2,-250 293.2,-256 293.2,-256 293.2,-268 293.2,-268 293.2,-274 287.2,-280 281.2,-280"/>
<text xml:space="preserve" text-anchor="middle" x="253.93" y="-257.55" font-family="Helvetica,sans-Serif" font-size="11.00" fill="white">TUIContext</text>
</g>
<!-- runner&#45;&gt;tuiContext -->
<g id="edge8" class="edge">
<title>runner&#45;&gt;tuiContext</title>
<path fill="none" stroke="#8a8a8a" d="M78.37,-335.96C84.44,-333.28 90.65,-330.55 96.54,-328 133.69,-311.91 176,-294.09 207.23,-281.02"/>
<polygon fill="#8a8a8a" stroke="#8a8a8a" points="208.02,-283.35 213.53,-278.39 206.13,-278.83 208.02,-283.35"/>
</g>
<!-- input -->
<g id="node15" class="node">
<title>input</title>
<path fill="#1f9b76" stroke="black" stroke-width="0" d="M284.58,-219C284.58,-219 223.29,-219 223.29,-219 217.29,-219 211.29,-213 211.29,-207 211.29,-207 211.29,-195 211.29,-195 211.29,-189 217.29,-183 223.29,-183 223.29,-183 284.58,-183 284.58,-183 290.58,-183 296.58,-189 296.58,-195 296.58,-195 296.58,-207 296.58,-207 296.58,-213 290.58,-219 284.58,-219"/>
<text xml:space="preserve" text-anchor="middle" x="253.93" y="-196.55" font-family="Helvetica,sans-Serif" font-size="11.00" fill="white">InputHandler</text>
</g>
<!-- runner&#45;&gt;input -->
<g id="edge9" class="edge">
<title>runner&#45;&gt;input</title>
<path fill="none" stroke="#8a8a8a" d="M52.94,-335.23C63.51,-321.24 79.54,-301.87 96.54,-288 129.52,-261.09 172,-238.06 204.36,-222.47"/>
<polygon fill="#8a8a8a" stroke="#8a8a8a" points="205.3,-224.73 210.57,-219.52 203.2,-220.31 205.3,-224.73"/>
</g>
<!-- render -->
<g id="node16" class="node">
<title>render</title>
<path fill="#1f9b76" stroke="black" stroke-width="0" d="M283.45,-158C283.45,-158 224.41,-158 224.41,-158 218.41,-158 212.41,-152 212.41,-146 212.41,-146 212.41,-134 212.41,-134 212.41,-128 218.41,-122 224.41,-122 224.41,-122 283.45,-122 283.45,-122 289.45,-122 295.45,-128 295.45,-134 295.45,-134 295.45,-146 295.45,-146 295.45,-152 289.45,-158 283.45,-158"/>
<text xml:space="preserve" text-anchor="middle" x="253.93" y="-135.55" font-family="Helvetica,sans-Serif" font-size="11.00" fill="white">RenderLoop</text>
</g>
<!-- runner&#45;&gt;render -->
<g id="edge10" class="edge">
<title>runner&#45;&gt;render</title>
<path fill="none" stroke="#8a8a8a" d="M44.73,-335.22C51.93,-309.46 68.26,-261.42 96.54,-230 126.25,-196.99 171.02,-172.94 205.06,-158.05"/>
<polygon fill="#8a8a8a" stroke="#8a8a8a" points="205.72,-160.43 211.2,-155.42 203.8,-155.92 205.72,-160.43"/>
</g>
<!-- pulse -->
<g id="node17" class="node">
<title>pulse</title>
<path fill="#1f9b76" stroke="black" stroke-width="0" d="M280.83,-97C280.83,-97 227.04,-97 227.04,-97 221.04,-97 215.04,-91 215.04,-85 215.04,-85 215.04,-73 215.04,-73 215.04,-67 221.04,-61 227.04,-61 227.04,-61 280.83,-61 280.83,-61 286.83,-61 292.83,-67 292.83,-73 292.83,-73 292.83,-85 292.83,-85 292.83,-91 286.83,-97 280.83,-97"/>
<text xml:space="preserve" text-anchor="middle" x="253.93" y="-74.55" font-family="Helvetica,sans-Serif" font-size="11.00" fill="white">PulseTimer</text>
</g>
<!-- runner&#45;&gt;pulse -->
<g id="edge11" class="edge">
<title>runner&#45;&gt;pulse</title>
<path fill="none" stroke="#8a8a8a" d="M41.35,-335.12C44.36,-299.44 55.55,-218.45 96.54,-167 125.06,-131.21 172.34,-107.52 207.46,-93.82"/>
<polygon fill="#8a8a8a" stroke="#8a8a8a" points="208.12,-96.2 213.79,-91.42 206.38,-91.61 208.12,-96.2"/>
</g>
<!-- cursor -->
<g id="node18" class="node">
<title>cursor</title>
<path fill="#1f9b76" stroke="black" stroke-width="0" d="M283.83,-36C283.83,-36 224.04,-36 224.04,-36 218.04,-36 212.04,-30 212.04,-24 212.04,-24 212.04,-12 212.04,-12 212.04,-6 218.04,0 224.04,0 224.04,0 283.83,0 283.83,0 289.83,0 295.83,-6 295.83,-12 295.83,-12 295.83,-24 295.83,-24 295.83,-30 289.83,-36 283.83,-36"/>
<text xml:space="preserve" text-anchor="middle" x="253.93" y="-13.55" font-family="Helvetica,sans-Serif" font-size="11.00" fill="white">CursorTimer</text>
</g>
<!-- runner&#45;&gt;cursor -->
<g id="edge12" class="edge">
<title>runner&#45;&gt;cursor</title>
<path fill="none" stroke="#8a8a8a" d="M42.3,-335.14C48.42,-284.03 68.01,-138.43 96.54,-101 123.31,-65.89 169.27,-44.05 204.46,-31.64"/>
<polygon fill="#8a8a8a" stroke="#8a8a8a" points="204.98,-34.05 210.82,-29.47 203.4,-29.41 204.98,-34.05"/>
</g>
<!-- signal&#45;&gt;runner -->
<g id="edge18" class="edge">
<title>signal&#45;&gt;runner</title>
<path fill="none" stroke="#8a8a8a" stroke-dasharray="5,2" d="M208.83,-671.13C204.05,-667.7 199.69,-663.68 196.29,-659 169.03,-621.5 195.7,-599.22 178.29,-556.25 149.41,-484.98 92.76,-413.3 61.77,-377.12"/>
<polygon fill="#8a8a8a" stroke="#8a8a8a" points="63.72,-375.63 57.29,-371.93 60.01,-378.83 63.72,-375.63"/>
<text xml:space="preserve" text-anchor="middle" x="137.41" y="-557.45" font-family="Helvetica,sans-Serif" font-size="9.00" fill="#555555">SIGINT · SIGWINCH</text>
</g>
<!-- tuiContext&#45;&gt;lifecycle -->
<g id="edge13" class="edge">
<title>tuiContext&#45;&gt;lifecycle</title>
<path fill="none" stroke="#8a8a8a" d="M293.07,-278.34C299.82,-282.43 306.34,-287.31 311.58,-293 331.65,-314.83 317.51,-333.14 338.58,-354 341.74,-357.13 345.27,-359.95 349.03,-362.5"/>
<polygon fill="#8a8a8a" stroke="#8a8a8a" points="347.47,-364.41 354.72,-365.99 350.04,-360.24 347.47,-364.41"/>
</g>
<!-- tuiContext&#45;&gt;keyDispatch -->
<g id="edge14" class="edge">
<title>tuiContext&#45;&gt;keyDispatch</title>
<path fill="none" stroke="#8a8a8a" d="M292.83,-277.08C311.69,-284.59 334.81,-293.79 355.39,-301.98"/>
<polygon fill="#8a8a8a" stroke="#8a8a8a" points="354.32,-304.19 361.73,-304.5 356.14,-299.63 354.32,-304.19"/>
</g>
<!-- tuiContext&#45;&gt;prefs -->
<g id="edge15" class="edge">
<title>tuiContext&#45;&gt;prefs</title>
<path fill="none" stroke="#8a8a8a" d="M292.83,-262C308.22,-262 326.44,-262 343.8,-262"/>
<polygon fill="#8a8a8a" stroke="#8a8a8a" points="343.72,-264.45 350.72,-262 343.72,-259.55 343.72,-264.45"/>
</g>
<!-- tuiContext&#45;&gt;stateStore -->
<g id="edge16" class="edge">
<title>tuiContext&#45;&gt;stateStore</title>
<path fill="none" stroke="#8a8a8a" d="M292.83,-246.92C312.57,-239.07 336.96,-229.36 358.23,-220.89"/>
<polygon fill="#8a8a8a" stroke="#8a8a8a" points="358.91,-223.26 364.5,-218.4 357.09,-218.71 358.91,-223.26"/>
</g>
<!-- tuiContext&#45;&gt;cache -->
<g id="edge17" class="edge">
<title>tuiContext&#45;&gt;cache</title>
<path fill="none" stroke="#8a8a8a" d="M293.07,-246.36C299.82,-242.39 306.34,-237.62 311.58,-232 331.79,-210.31 317.64,-191.99 338.58,-171 343.87,-165.7 350.22,-161.23 356.9,-157.48"/>
<polygon fill="#8a8a8a" stroke="#8a8a8a" points="357.81,-159.77 362.9,-154.39 355.56,-155.42 357.81,-159.77"/>
</g>
</g>
</svg>
