<svg width="454pt" height="637pt"
 viewBox="0.00 0.00 454.00 637.00" xmlns="http://www.w3.org/2000/svg" xmlns:xlink="http://www.w3.org/1999/xlink">
<style>
.edge path { fill: none; stroke: #8a8a8a; }
.edge polygon { stroke: #8a8a8a; fill: #8a8a8a; }
.cluster path, .cluster polygon { fill: none; stroke: #c8c8c8; }
@media (prefers-color-scheme: dark) {
  .edge text { fill: #cdd1d5; }
  .edge path { stroke: #9aa0a6; }
  .edge polygon { stroke: #9aa0a6; fill: #9aa0a6; }
  .cluster text { fill: #9aa0a6; }
  .cluster path, .cluster polygon { stroke: #5a5a5a; }
}
</style>
<g id="graph0" class="graph" transform="scale(1 1) rotate(0) translate(4 633.41)">
<title>lifecycle&#45;main&#45;loop</title>
<!-- setup -->
<g id="node1" class="node">
<title>setup</title>
<path fill="#9c3d3d" stroke="black" stroke-width="0" d="M351.29,-629.41C351.29,-629.41 135.5,-629.41 135.5,-629.41 129.5,-629.41 123.5,-623.41 123.5,-617.41 123.5,-617.41 123.5,-605.41 123.5,-605.41 123.5,-599.41 129.5,-593.41 135.5,-593.41 135.5,-593.41 351.29,-593.41 351.29,-593.41 357.29,-593.41 363.29,-599.41 363.29,-605.41 363.29,-605.41 363.29,-617.41 363.29,-617.41 363.29,-623.41 357.29,-629.41 351.29,-629.41"/>
<text xml:space="preserve" text-anchor="middle" x="243.39" y="-612.96" font-family="Helvetica,sans-Serif" font-size="11.00" fill="white">Terminal setup</text>
<text xml:space="preserve" text-anchor="middle" x="243.39" y="-600.96" font-family="Helvetica,sans-Serif" font-size="11.00" fill="white">install signals · alt screen · raw mode · mouse</text>
</g>
<!-- observers -->
<g id="node2" class="node">
<title>observers</title>
<path fill="#1f9b76" stroke="black" stroke-width="0" d="M357.29,-556.41C357.29,-556.41 129.5,-556.41 129.5,-556.41 123.5,-556.41 117.5,-550.41 117.5,-544.41 117.5,-544.41 117.5,-532.08 117.5,-532.08 117.5,-526.08 123.5,-520.08 129.5,-520.08 129.5,-520.08 357.29,-520.08 357.29,-520.08 363.29,-520.08 369.29,-526.08 369.29,-532.08 369.29,-532.08 369.29,-544.41 369.29,-544.41 369.29,-550.41 363.29,-556.41 357.29,-556.41"/>
<text xml:space="preserve" text-anchor="middle" x="243.39" y="-540.92" font-family="Helvetica,sans-Serif" font-size="11.00" fill="white">Register observers</text>
<text xml:space="preserve" text-anchor="middle" x="243.39" y="-528.92" font-family="Helvetica,sans-Serif" font-size="11.00" fill="white">AppState → requestRerender · focus → wake()</text>
</g>
<!-- setup&#45;&gt;observers -->
<g id="edge1" class="edge">
<title>setup&#45;&gt;observers</title>
<path vector-effect="non-scaling-stroke" fill="none" stroke="#8a8a8a" stroke-width="1.2" d="M243.39,-593.54C243.39,-584.95 243.39,-574.31 243.39,-564.74"/>
<polygon fill="#8a8a8a" stroke="#8a8a8a" stroke-width="1.2" points="245.85,-564.81 243.4,-557.81 240.95,-564.81 245.85,-564.81"/>
</g>
<!-- timers -->
<g id="node3" class="node">
<title>timers</title>
<path fill="#1f9b76" stroke="black" stroke-width="0" d="M331.04,-483.08C331.04,-483.08 155.75,-483.08 155.75,-483.08 149.75,-483.08 143.75,-477.08 143.75,-471.08 143.75,-471.08 143.75,-459.08 143.75,-459.08 143.75,-453.08 149.75,-447.08 155.75,-447.08 155.75,-447.08 331.04,-447.08 331.04,-447.08 337.04,-447.08 343.04,-453.08 343.04,-459.08 343.04,-459.08 343.04,-471.08 343.04,-471.08 343.04,-477.08 337.04,-483.08 331.04,-483.08"/>
<text xml:space="preserve" text-anchor="middle" x="243.39" y="-466.63" font-family="Helvetica,sans-Serif" font-size="11.00" fill="white">Prepare animation timers</text>
<text xml:space="preserve" text-anchor="middle" x="243.39" y="-454.63" font-family="Helvetica,sans-Serif" font-size="11.00" fill="white">Pulse · Cursor — started on demand</text>
</g>
<!-- observers&#45;&gt;timers -->
<g id="edge2" class="edge">
<title>observers&#45;&gt;timers</title>
<path vector-effect="non-scaling-stroke" fill="none" stroke="#8a8a8a" stroke-width="1.2" d="M243.39,-520.38C243.39,-511.78 243.39,-501.15 243.39,-491.58"/>
<polygon fill="#8a8a8a" stroke="#8a8a8a" stroke-width="1.2" points="245.85,-491.64 243.4,-484.64 240.95,-491.64 245.85,-491.64"/>
</g>
<!-- initial -->
<g id="node4" class="node">
<title>initial</title>
<path fill="#1f9b76" stroke="black" stroke-width="0" d="M286.41,-410.08C286.41,-410.08 200.38,-410.08 200.38,-410.08 194.38,-410.08 188.38,-404.08 188.38,-398.08 188.38,-398.08 188.38,-386.08 188.38,-386.08 188.38,-380.08 194.38,-374.08 200.38,-374.08 200.38,-374.08 286.41,-374.08 286.41,-374.08 292.41,-374.08 298.41,-380.08 298.41,-386.08 298.41,-386.08 298.41,-398.08 298.41,-398.08 298.41,-404.08 292.41,-410.08 286.41,-410.08"/>
<text xml:space="preserve" text-anchor="middle" x="243.39" y="-387.63" font-family="Helvetica,sans-Serif" font-size="11.00" fill="white">Render first frame</text>
</g>
<!-- timers&#45;&gt;initial -->
<g id="edge3" class="edge">
<title>timers&#45;&gt;initial</title>
<path vector-effect="non-scaling-stroke" fill="none" stroke="#8a8a8a" stroke-width="1.2" d="M243.39,-447.25C243.39,-438.68 243.39,-428.07 243.39,-418.52"/>
<polygon fill="#8a8a8a" stroke="#8a8a8a" stroke-width="1.2" points="245.85,-418.6 243.4,-411.6 240.95,-418.6 245.85,-418.6"/>
</g>
<!-- shutdown -->
<g id="node5" class="node">
<title>shutdown</title>
<path fill="#1f9b76" stroke="black" stroke-width="0" d="M231.78,-334.05C231.78,-334.05 186,-322.11 186,-322.11 180.19,-320.59 180.19,-317.57 186,-316.05 186,-316.05 231.78,-304.11 231.78,-304.11 237.59,-302.59 249.2,-302.59 255.01,-304.11 255.01,-304.11 300.79,-316.05 300.79,-316.05 306.6,-317.57 306.6,-320.59 300.79,-322.11 300.79,-322.11 255.01,-334.05 255.01,-334.05 249.2,-335.57 237.59,-335.57 231.78,-334.05"/>
<text xml:space="preserve" text-anchor="middle" x="243.39" y="-314.63" font-family="Helvetica,sans-Serif" font-size="11.00" fill="white">shouldShutdown?</text>
</g>
<!-- initial&#45;&gt;shutdown -->
<g id="edge4" class="edge">
<title>initial&#45;&gt;shutdown</title>
<path vector-effect="non-scaling-stroke" fill="none" stroke="#8a8a8a" stroke-width="1.2" d="M243.39,-374.25C243.39,-365.68 243.39,-355.07 243.39,-345.52"/>
<polygon fill="#8a8a8a" stroke="#8a8a8a" stroke-width="1.2" points="245.85,-345.6 243.4,-338.6 240.95,-345.6 245.85,-345.6"/>
</g>
<!-- resize -->
<g id="node6" class="node">
<title>resize</title>
<path fill="#1f9b76" stroke="black" stroke-width="0" d="M225.91,-255.33C225.91,-255.33 58.88,-255.33 58.88,-255.33 52.88,-255.33 46.87,-249.33 46.87,-243.33 46.87,-243.33 46.87,-231 46.87,-231 46.87,-225 52.87,-219 58.87,-219 58.87,-219 225.91,-219 225.91,-219 231.91,-219 237.91,-225 237.91,-231 237.91,-231 237.91,-243.33 237.91,-243.33 237.91,-249.33 231.91,-255.33 225.91,-255.33"/>
<text xml:space="preserve" text-anchor="middle" x="142.39" y="-239.84" font-family="Helvetica,sans-Serif" font-size="11.00" fill="white">Consume resize flag</text>
<text xml:space="preserve" text-anchor="middle" x="142.39" y="-227.84" font-family="Helvetica,sans-Serif" font-size="11.00" fill="white">SIGWINCH → invalidate diff cache</text>
</g>
<!-- shutdown&#45;&gt;resize -->
<g id="edge5" class="edge">
<title>shutdown&#45;&gt;resize</title>
<path vector-effect="non-scaling-stroke" fill="none" stroke="#8a8a8a" stroke-width="1.2" d="M227.61,-305.59C212.39,-293.55 189.02,-275.06 170.6,-260.48"/>
<polygon fill="#8a8a8a" stroke="#8a8a8a" stroke-width="1.2" points="172.5,-258.86 165.49,-256.44 169.46,-262.7 172.5,-258.86"/>
<text xml:space="preserve" text-anchor="middle" x="204.19" y="-274.53" font-family="Helvetica,sans-Serif" font-size="9.00" fill="#555555">no</text>
</g>
<!-- cleanup -->
<g id="node10" class="node">
<title>cleanup</title>
<path fill="#9c3d3d" stroke="black" stroke-width="0" d="M416.16,-255.16C416.16,-255.16 274.62,-255.16 274.62,-255.16 268.62,-255.16 262.62,-249.16 262.62,-243.16 262.62,-243.16 262.62,-231.16 262.62,-231.16 262.62,-225.16 268.62,-219.16 274.62,-219.16 274.62,-219.16 416.16,-219.16 416.16,-219.16 422.16,-219.16 428.16,-225.16 428.16,-231.16 428.16,-231.16 428.16,-243.16 428.16,-243.16 428.16,-249.16 422.16,-255.16 416.16,-255.16"/>
<text xml:space="preserve" text-anchor="middle" x="345.39" y="-238.72" font-family="Helvetica,sans-Serif" font-size="11.00" fill="white">Cleanup &amp; exit</text>
<text xml:space="preserve" text-anchor="middle" x="345.39" y="-226.72" font-family="Helvetica,sans-Serif" font-size="11.00" fill="white">restore terminal · show cursor</text>
</g>
<!-- shutdown&#45;&gt;cleanup -->
<g id="edge6" class="edge">
<title>shutdown&#45;&gt;cleanup</title>
<path vector-effect="non-scaling-stroke" fill="none" stroke="#8a8a8a" stroke-width="1.2" d="M259.33,-305.59C274.8,-293.47 298.61,-274.82 317.27,-260.2"/>
<polygon fill="#8a8a8a" stroke="#8a8a8a" stroke-width="1.2" points="318.46,-262.38 322.46,-256.14 315.44,-258.52 318.46,-262.38"/>
<text xml:space="preserve" text-anchor="middle" x="307.63" y="-274.53" font-family="Helvetica,sans-Serif" font-size="9.00" fill="#555555">yes</text>
</g>
<!-- input -->
<g id="node7" class="node">
<title>input</title>
<path fill="#1f9b76" stroke="black" stroke-width="0" d="M272.79,-182C272.79,-182 12,-182 12,-182 6,-182 0,-176 0,-170 0,-170 0,-158 0,-158 0,-152 6,-146 12,-146 12,-146 272.79,-146 272.79,-146 278.79,-146 284.79,-152 284.79,-158 284.79,-158 284.79,-170 284.79,-170 284.79,-176 278.79,-182 272.79,-182"/>
<text xml:space="preserve" text-anchor="middle" x="142.39" y="-165.55" font-family="Helvetica,sans-Serif" font-size="11.00" fill="white">Drain &amp; dispatch input</text>
<text xml:space="preserve" text-anchor="middle" x="142.39" y="-153.55" font-family="Helvetica,sans-Serif" font-size="11.00" fill="white">≤128/frame · keys: 5 layers + 2 stages · mouse: hit&#45;test</text>
</g>
<!-- resize&#45;&gt;input -->
<g id="edge7" class="edge">
<title>resize&#45;&gt;input</title>
<path vector-effect="non-scaling-stroke" fill="none" stroke="#8a8a8a" stroke-width="1.2" d="M142.39,-219.3C142.39,-210.7 142.39,-200.07 142.39,-190.5"/>
<polygon fill="#8a8a8a" stroke="#8a8a8a" stroke-width="1.2" points="144.85,-190.56 142.4,-183.56 139.95,-190.56 144.85,-190.56"/>
</g>
<!-- render -->
<g id="node8" class="node">
<title>render</title>
<path fill="#1f9b76" stroke="black" stroke-width="0" d="M231.91,-109C231.91,-109 52.87,-109 52.87,-109 46.87,-109 40.87,-103 40.87,-97 40.87,-97 40.87,-85 40.87,-85 40.87,-79 46.87,-73 52.87,-73 52.87,-73 231.91,-73 231.91,-73 237.91,-73 243.91,-79 243.91,-85 243.91,-85 243.91,-97 243.91,-97 243.91,-103 237.91,-109 231.91,-109"/>
<text xml:space="preserve" text-anchor="middle" x="142.39" y="-92.55" font-family="Helvetica,sans-Serif" font-size="11.00" fill="white">Render if a frame is due</text>
<text xml:space="preserve" text-anchor="middle" x="142.39" y="-80.55" font-family="Helvetica,sans-Serif" font-size="11.00" fill="white">at most once per App.maxFrameRate</text>
</g>
<!-- input&#45;&gt;render -->
<g id="edge8" class="edge">
<title>input&#45;&gt;render</title>
<path vector-effect="non-scaling-stroke" fill="none" stroke="#8a8a8a" stroke-width="1.2" d="M142.39,-146.17C142.39,-137.6 142.39,-126.99 142.39,-117.44"/>
<polygon fill="#8a8a8a" stroke="#8a8a8a" stroke-width="1.2" points="144.85,-117.52 142.4,-110.52 139.95,-117.52 144.85,-117.52"/>
</g>
<!-- block -->
<g id="node9" class="node">
<title>block</title>
<path fill="#13795b" stroke="black" stroke-width="0" d="M211.66,-36C211.66,-36 73.12,-36 73.12,-36 67.12,-36 61.12,-30 61.12,-24 61.12,-24 61.12,-12 61.12,-12 61.12,-6 67.12,0 73.12,0 73.12,0 211.66,0 211.66,0 217.66,0 223.66,-6 223.66,-12 223.66,-12 223.66,-24 223.66,-24 223.66,-30 217.66,-36 211.66,-36"/>
<text xml:space="preserve" text-anchor="middle" x="142.39" y="-19.55" font-family="Helvetica,sans-Serif" font-size="11.00" fill="white">Block until woken</text>
<text xml:space="preserve" text-anchor="middle" x="142.39" y="-7.55" font-family="Helvetica,sans-Serif" font-size="11.00" fill="white">input · render request · signal</text>
</g>
<!-- render&#45;&gt;block -->
<g id="edge9" class="edge">
<title>render&#45;&gt;block</title>
<path vector-effect="non-scaling-stroke" fill="none" stroke="#8a8a8a" stroke-width="1.2" d="M142.39,-73.17C142.39,-64.6 142.39,-53.99 142.39,-44.44"/>
<polygon fill="#8a8a8a" stroke="#8a8a8a" stroke-width="1.2" points="144.85,-44.52 142.4,-37.52 139.95,-44.52 144.85,-44.52"/>
</g>
<!-- block&#45;&gt;shutdown -->
<g id="edge10" class="edge">
<title>block&#45;&gt;shutdown</title>
<path vector-effect="non-scaling-stroke" fill="none" stroke="#8a8a8a" stroke-width="1.2" d="M196.01,-35.9C267.98,-61.94 392.35,-119.56 440.39,-219 469.38,-279 367.88,-303.21 299.94,-312.57"/>
<polygon fill="#8a8a8a" stroke="#8a8a8a" stroke-width="1.2" points="299.84,-310.11 293.22,-313.45 300.48,-314.97 299.84,-310.11"/>
<text xml:space="preserve" text-anchor="middle" x="426.74" y="-160.32" font-family="Helvetica,sans-Serif" font-size="9.00" fill="#555555">loop</text>
</g>
</g>
</svg>
